{
    "asset" : {
        "generator" : "Khronos glTF Blender I/O v1.8.19",
        "version" : "2.0"
    },
    "scene" : 0,
    "scenes" : [
        {
            "name" : "Scene",
            "nodes" : [
                0,
                1,
                2,
                3,
                4,
                5,
                6,
                7,
                8,
                9,
                10,
                11,
                12
            ]
        }
    ],
    "nodes" : [
        {
            "name" : "VRayPlane001",
            "scale" : [
                0.02539999969303608,
                0.02539999969303608,
                0.02539999969303608
            ],
            "translation" : [
                5.748649709858e-05,
                0,
                -7.109394937288016e-05
            ]
        },
        {
            "name" : "VRayPlane001.001",
            "scale" : [
                0.02539999969303608,
                0.02539999969303608,
                0.02539999969303608
            ],
            "translation" : [
                5.748649709858e-05,
                0,
                -7.109394937288016e-05
            ]
        },
        {
            "mesh" : 0,
            "name" : "Line035",
            "rotation" : [
                0.5000000596046448,
                0.4999999701976776,
                -0.5000000596046448,
                0.4999999403953552
            ],
            "scale" : [
                0.013864820823073387,
                0.07525954395532608,
                0.013335435651242733
            ],
            "translation" : [
                16.644683837890625,
                7.028893947601318,
                -12.976846694946289
            ]
        },
        {
            "mesh" : 1,
            "name" : "Line036",
            "rotation" : [
                0.7071068286895752,
                0,
                0,
                0.7071067094802856
            ],
            "scale" : [
                0.02539999969303608,
                0.02539999969303608,
                0.02539999969303608
            ],
            "translation" : [
                -8.54874038696289,
                5.346816062927246,
                0
            ]
        },
        {
            "mesh" : 2,
            "name" : "Line038",
            "rotation" : [
                0.5000000596046448,
                0.5,
                -0.5,
                0.4999999403953552
            ],
            "scale" : [
                0.013447223231196404,
                0.0006980081670917571,
                0.013447223231196404
            ],
            "translation" : [
                17.1201171875,
                8.588454246520996,
                -1.7064058780670166
            ]
        },
        {
            "mesh" : 3,
            "name" : "Line039",
            "rotation" : [
                0.4999999403953552,
                0.5000000596046448,
                -0.4999999701976776,
                0.5000000596046448
            ],
            "scale" : [
                -0.013447224162518978,
                -0.0006980081670917571,
                -0.013447223231196404
            ],
            "translation" : [
                -16.950212478637695,
                8.588454246520996,
                -1.7067127227783203
            ]
        },
        {
            "mesh" : 4,
            "name" : "Line040",
            "rotation" : [
                0.7071068286895752,
                0,
                0,
                0.7071067094802856
            ],
            "scale" : [
                -0.02539999969303608,
                -0.003924088086932898,
                -0.02539999969303608
            ],
            "translation" : [
                -16.412471771240234,
                8.616240501403809,
                0.515296459197998
            ]
        },
        {
            "mesh" : 5,
            "name" : "Line041",
            "rotation" : [
                -0.6079540848731995,
                0.3610982298851013,
                0.6079540252685547,
                0.3610982298851013
            ],
            "scale" : [
                -0.02539999596774578,
                -0.0020894913468509912,
                -0.02539999969303608
            ],
            "translation" : [
                2.410888671875,
                4.105907440185547,
                -0.19115236401557922
            ]
        },
        {
            "mesh" : 6,
            "name" : "Line042",
            "rotation" : [
                0.3610982596874237,
                -0.6079540252685547,
                0.3610983192920685,
                0.6079540252685547
            ],
            "scale" : [
                0.02539999969303608,
                0.0020894911140203476,
                0.02540000155568123
            ],
            "translation" : [
                -2.2145919799804688,
                4.105907440185547,
                -0.19115236401557922
            ]
        },
        {
            "mesh" : 7,
            "name" : "Line043",
            "rotation" : [
                0.7071068286895752,
                0,
                0,
                0.7071067094802856
            ],
            "scale" : [
                0.02539999969303608,
                0.003924088086932898,
                0.02539999969303608
            ],
            "translation" : [
                16.583267211914062,
                8.616240501403809,
                0.515296459197998
            ]
        },
        {
            "mesh" : 8,
            "name" : "Line046",
            "rotation" : [
                0.6532815098762512,
                0.6532814502716064,
                -0.2705981135368347,
                0.27059805393218994
            ],
            "scale" : [
                -0.014012247323989868,
                -0.014012247323989868,
                -0.014012247323989868
            ],
            "translation" : [
                51.17012405395508,
                8.308895111083984,
                -18.27619171142578
            ]
        },
        {
            "mesh" : 9,
            "name" : "Line047",
            "rotation" : [
                0.5000000596046448,
                0.4999999701976776,
                -0.5000000596046448,
                0.4999999403953552
            ],
            "scale" : [
                0.013864820823073387,
                0.07525954395532608,
                0.013335435651242733
            ],
            "translation" : [
                -16.96162223815918,
                7.028893947601318,
                -12.976846694946289
            ]
        },
        {
            "mesh" : 10,
            "name" : "Line048",
            "rotation" : [
                0.6532815098762512,
                0.6532815098762512,
                -0.27059826254844666,
                0.270597904920578
            ],
            "scale" : [
                0.014012248255312443,
                0.014012247323989868,
                0.014012248255312443
            ],
            "translation" : [
                -16.967599868774414,
                8.308894157409668,
                -18.276193618774414
            ]
        }
    ],
    "materials" : [
        {
            "doubleSided" : true,
            "name" : "24 - Default",
            "pbrMetallicRoughness" : {
                "baseColorFactor" : [
                    0,
                    0,
                    0,
                    1
                ],
                "metallicFactor" : 0,
                "roughnessFactor" : 0.5527864098548889
            }
        },
        {
            "doubleSided" : true,
            "name" : "23 - Default",
            "pbrMetallicRoughness" : {
                "baseColorFactor" : [
                    0.960784375667572,
                    0.6117647290229797,
                    0,
                    1
                ],
                "metallicFactor" : 0,
                "roughnessFactor" : 0.5527864098548889
            }
        }
    ],
    "meshes" : [
        {
            "name" : "Mesh.011",
            "primitives" : [
                {
                    "attributes" : {
                        "POSITION" : 0,
                        "NORMAL" : 1
                    },
                    "indices" : 2,
                    "material" : 0
                }
            ]
        },
        {
            "name" : "Mesh.012",
            "primitives" : [
                {
                    "attributes" : {
                        "POSITION" : 3,
                        "NORMAL" : 4
                    },
                    "indices" : 5,
                    "material" : 0
                }
            ]
        },
        {
            "name" : "Mesh.013",
            "primitives" : [
                {
                    "attributes" : {
                        "POSITION" : 6,
                        "NORMAL" : 7
                    },
                    "indices" : 8,
                    "material" : 1
                }
            ]
        },
        {
            "name" : "Mesh.014",
            "primitives" : [
                {
                    "attributes" : {
                        "POSITION" : 9,
                        "NORMAL" : 10
                    },
                    "indices" : 8,
                    "material" : 1
                }
            ]
        },
        {
            "name" : "Mesh.015",
            "primitives" : [
                {
                    "attributes" : {
                        "POSITION" : 11,
                        "NORMAL" : 12
                    },
                    "indices" : 13,
                    "material" : 1
                }
            ]
        },
        {
            "name" : "Mesh.016",
            "primitives" : [
                {
                    "attributes" : {
                        "POSITION" : 14,
                        "NORMAL" : 15
                    },
                    "indices" : 16,
                    "material" : 0
                }
            ]
        },
        {
            "name" : "Mesh.017",
            "primitives" : [
                {
                    "attributes" : {
                        "POSITION" : 17,
                        "NORMAL" : 18
                    },
                    "indices" : 16,
                    "material" : 0
                }
            ]
        },
        {
            "name" : "Mesh.018",
            "primitives" : [
                {
                    "attributes" : {
                        "POSITION" : 19,
                        "NORMAL" : 20
                    },
                    "indices" : 13,
                    "material" : 1
                }
            ]
        },
        {
            "name" : "Mesh.019",
            "primitives" : [
                {
                    "attributes" : {
                        "POSITION" : 21,
                        "NORMAL" : 22
                    },
                    "indices" : 23,
                    "material" : 1
                }
            ]
        },
        {
            "name" : "Mesh.020",
            "primitives" : [
                {
                    "attributes" : {
                        "POSITION" : 24,
                        "NORMAL" : 25
                    },
                    "indices" : 2,
                    "material" : 0
                }
            ]
        },
        {
            "name" : "Mesh.021",
            "primitives" : [
                {
                    "attributes" : {
                        "POSITION" : 26,
                        "NORMAL" : 27
                    },
                    "indices" : 23,
                    "material" : 1
                }
            ]
        }
    ],
    "accessors" : [
        {
            "bufferView" : 0,
            "componentType" : 5126,
            "count" : 2144,
            "max" : [
                442.37091064453125,
                6.500000476837158,
                -37.348106384277344
            ],
            "min" : [
                -942.7250366210938,
                -3.398910121177323e-05,
                -204.80337524414062
            ],
            "type" : "VEC3"
        },
        {
            "bufferView" : 1,
            "componentType" : 5126,
            "count" : 2144,
            "type" : "VEC3"
        },
        {
            "bufferView" : 2,
            "componentType" : 5123,
            "count" : 12468,
            "type" : "SCALAR"
        },
        {
            "bufferView" : 3,
            "componentType" : 5126,
            "count" : 9636,
            "max" : [
                1011.3807373046875,
                21.76374053955078,
                208.4239959716797
            ],
            "min" : [
                -331.6965026855469,
                -6.058593953639502e-06,
                -215.8756561279297
            ],
            "type" : "VEC3"
        },
        {
            "bufferView" : 4,
            "componentType" : 5126,
            "count" : 9636,
            "type" : "VEC3"
        },
        {
            "bufferView" : 5,
            "componentType" : 5123,
            "count" : 57828,
            "type" : "SCALAR"
        },
        {
            "bufferView" : 6,
            "componentType" : 5126,
            "count" : 4470,
            "max" : [
                105.1572265625,
                35,
                17.71173095703125
            ],
            "min" : [
                -131.90110778808594,
                -1.293744503527705e-06,
                -13.45290756225586
            ],
            "type" : "VEC3"
        },
        {
            "bufferView" : 7,
            "componentType" : 5126,
            "count" : 4470,
            "type" : "VEC3"
        },
        {
            "bufferView" : 8,
            "componentType" : 5123,
            "count" : 26238,
            "type" : "SCALAR"
        },
        {
            "bufferView" : 9,
            "componentType" : 5126,
            "count" : 4470,
            "max" : [
                105.1572265625,
                35,
                17.71173095703125
            ],
            "min" : [
                -131.90110778808594,
                -1.293744503527705e-06,
                -13.45290756225586
            ],
            "type" : "VEC3"
        },
        {
            "bufferView" : 10,
            "componentType" : 5126,
            "count" : 4470,
            "type" : "VEC3"
        },
        {
            "bufferView" : 11,
            "componentType" : 5126,
            "count" : 499,
            "max" : [
                22.2022705078125,
                11.500000953674316,
                29.368011474609375
            ],
            "min" : [
                -17.98394775390625,
                -114.07886505126953,
                -29.7276611328125
            ],
            "type" : "VEC3"
        },
        {
            "bufferView" : 12,
            "componentType" : 5126,
            "count" : 499,
            "type" : "VEC3"
        },
        {
            "bufferView" : 13,
            "componentType" : 5123,
            "count" : 2868,
            "type" : "SCALAR"
        },
        {
            "bufferView" : 14,
            "componentType" : 5126,
            "count" : 1728,
            "max" : [
                8.954773902893066,
                11.500000953674316,
                63.6461181640625
            ],
            "min" : [
                -12.268359184265137,
                -2.0067116679456376e-07,
                -64.97900390625
            ],
            "type" : "VEC3"
        },
        {
            "bufferView" : 15,
            "componentType" : 5126,
            "count" : 1728,
            "type" : "VEC3"
        },
        {
            "bufferView" : 16,
            "componentType" : 5123,
            "count" : 9708,
            "type" : "SCALAR"
        },
        {
            "bufferView" : 17,
            "componentType" : 5126,
            "count" : 1728,
            "max" : [
                8.954773902893066,
                11.500000953674316,
                63.6461181640625
            ],
            "min" : [
                -12.268359184265137,
                -2.0067116679456376e-07,
                -64.97900390625
            ],
            "type" : "VEC3"
        },
        {
            "bufferView" : 18,
            "componentType" : 5126,
            "count" : 1728,
            "type" : "VEC3"
        },
        {
            "bufferView" : 19,
            "componentType" : 5126,
            "count" : 499,
            "max" : [
                22.2022705078125,
                11.500000953674316,
                29.368011474609375
            ],
            "min" : [
                -17.98394775390625,
                -114.07886505126953,
                -29.7276611328125
            ],
            "type" : "VEC3"
        },
        {
            "bufferView" : 20,
            "componentType" : 5126,
            "count" : 499,
            "type" : "VEC3"
        },
        {
            "bufferView" : 21,
            "componentType" : 5126,
            "count" : 770,
            "max" : [
                34.018226623535156,
                4.500000476837158,
                38.83112335205078
            ],
            "min" : [
                -36.78759765625,
                -2.223358706032741e-06,
                -54.444480895996094
            ],
            "type" : "VEC3"
        },
        {
            "bufferView" : 22,
            "componentType" : 5126,
            "count" : 770,
            "type" : "VEC3"
        },
        {
            "bufferView" : 23,
            "componentType" : 5123,
            "count" : 4188,
            "type" : "SCALAR"
        },
        {
            "bufferView" : 24,
            "componentType" : 5126,
            "count" : 2144,
            "max" : [
                442.37091064453125,
                6.500000476837158,
                -37.348106384277344
            ],
            "min" : [
                -942.7250366210938,
                -3.398910121177323e-05,
                -204.80337524414062
            ],
            "type" : "VEC3"
        },
        {
            "bufferView" : 25,
            "componentType" : 5126,
            "count" : 2144,
            "type" : "VEC3"
        },
        {
            "bufferView" : 26,
            "componentType" : 5126,
            "count" : 770,
            "max" : [
                34.018226623535156,
                4.500000476837158,
                38.83112335205078
            ],
            "min" : [
                -36.78759765625,
                -2.223358706032741e-06,
                -54.444480895996094
            ],
            "type" : "VEC3"
        },
        {
            "bufferView" : 27,
            "componentType" : 5126,
            "count" : 770,
            "type" : "VEC3"
        }
    ],
    "bufferViews" : [
        {
            "buffer" : 0,
            "byteLength" : 25728,
            "byteOffset" : 0
        },
        {
            "buffer" : 0,
            "byteLength" : 25728,
            "byteOffset" : 25728
        },
        {
            "buffer" : 0,
            "byteLength" : 24936,
            "byteOffset" : 51456
        },
        {
            "buffer" : 0,
            "byteLength" : 115632,
            "byteOffset" : 76392
        },
        {
            "buffer" : 0,
            "byteLength" : 115632,
            "byteOffset" : 192024
        },
        {
            "buffer" : 0,
            "byteLength" : 115656,
            "byteOffset" : 307656
        },
        {
            "buffer" : 0,
            "byteLength" : 53640,
            "byteOffset" : 423312
        },
        {
            "buffer" : 0,
            "byteLength" : 53640,
            "byteOffset" : 476952
        },
        {
            "buffer" : 0,
            "byteLength" : 52476,
            "byteOffset" : 530592
        },
        {
            "buffer" : 0,
            "byteLength" : 53640,
            "byteOffset" : 583068
        },
        {
            "buffer" : 0,
            "byteLength" : 53640,
            "byteOffset" : 636708
        },
        {
            "buffer" : 0,
            "byteLength" : 5988,
            "byteOffset" : 690348
        },
        {
            "buffer" : 0,
            "byteLength" : 5988,
            "byteOffset" : 696336
        },
        {
            "buffer" : 0,
            "byteLength" : 5736,
            "byteOffset" : 702324
        },
        {
            "buffer" : 0,
            "byteLength" : 20736,
            "byteOffset" : 708060
        },
        {
            "buffer" : 0,
            "byteLength" : 20736,
            "byteOffset" : 728796
        },
        {
            "buffer" : 0,
            "byteLength" : 19416,
            "byteOffset" : 749532
        },
        {
            "buffer" : 0,
            "byteLength" : 20736,
            "byteOffset" : 768948
        },
        {
            "buffer" : 0,
            "byteLength" : 20736,
            "byteOffset" : 789684
        },
        {
            "buffer" : 0,
            "byteLength" : 5988,
            "byteOffset" : 810420
        },
        {
            "buffer" : 0,
            "byteLength" : 5988,
            "byteOffset" : 816408
        },
        {
            "buffer" : 0,
            "byteLength" : 9240,
            "byteOffset" : 822396
        },
        {
            "buffer" : 0,
            "byteLength" : 9240,
            "byteOffset" : 831636
        },
        {
            "buffer" : 0,
            "byteLength" : 8376,
            "byteOffset" : 840876
        },
        {
            "buffer" : 0,
            "byteLength" : 25728,
            "byteOffset" : 849252
        },
        {
            "buffer" : 0,
            "byteLength" : 25728,
            "byteOffset" : 874980
        },
        {
            "buffer" : 0,
            "byteLength" : 9240,
            "byteOffset" : 900708
        },
        {
            "buffer" : 0,
            "byteLength" : 9240,
            "byteOffset" : 909948
        }
    ],
    "buffers" : [
        {
            "byteLength" : 919188,
            "uri" : "data:application/octet-stream;base64,"
        }
    ]
}
